HIERARCHY
ROOT Hips
{
	OFFSET 0.00000 0.00000 0.00000
	CHANNELS 6 Xposition Yposition Zposition Zrotation Yrotation Xrotation 
	JOINT LHipJoint
	{
		OFFSET 0 0 0
		CHANNELS 3 Zrotation Yrotation Xrotation
		JOINT LeftUpLeg
		{
			OFFSET 1.65674 -1.80282 0.62477
			CHANNELS 3 Zrotation Yrotation Xrotation
			JOINT LeftLeg
			{
				OFFSET 2.59720 -7.13576 0.00000
				CHANNELS 3 Zrotation Yrotation Xrotation
				JOINT LeftFoot
				{
					OFFSET 2.49236 -6.84770 0.00000
					CHANNELS 3 Zrotation Yrotation Xrotation
					JOINT LeftToeBase
					{
						OFFSET 0.19704 -0.54136 2.14581
						CHANNELS 3 Zrotation Yrotation Xrotation
						End Site
						{
							OFFSET 0.00000 -0.00000 1.11249
						}
					}
				}
			}
		}
	}
	JOINT RHipJoint
	{
		OFFSET 0 0 0
		CHANNELS 3 Zrotation Yrotation Xrotation
		JOINT RightUpLeg
		{
			OFFSET -1.61070 -1.80282 0.62476
			CHANNELS 3 Zrotation Yrotation Xrotation
			JOINT RightLeg
			{
				OFFSET -2.59502 -7.12977 0.00000
				CHANNELS 3 Zrotation Yrotation Xrotation
				JOINT RightFoot
				{
					OFFSET -2.46780 -6.78024 0.00000
					CHANNELS 3 Zrotation Yrotation Xrotation
					JOINT RightToeBase
					{
						OFFSET -0.23024 -0.63258 2.13368
						CHANNELS 3 Zrotation Yrotation Xrotation
						End Site
						{
							OFFSET -0.00000 -0.00000 1.11569
						}
					}
				}
			}
		}
	}
	JOINT LowerBack
	{
		OFFSET 0 0 0
		CHANNELS 3 Zrotation Yrotation Xrotation
		JOINT Spine
		{
			OFFSET 0.01961 2.05450 -0.14112
			CHANNELS 3 Zrotation Yrotation Xrotation
			JOINT Spine1
			{
				OFFSET 0.01021 2.06436 -0.05921
				CHANNELS 3 Zrotation Yrotation Xrotation
				JOINT Neck
				{
					OFFSET 0 0 0
					CHANNELS 3 Zrotation Yrotation Xrotation
					JOINT Neck1
					{
						OFFSET 0.00713 1.56711 0.14968
						CHANNELS 3 Zrotation Yrotation Xrotation
						JOINT Head
						{
							OFFSET 0.03429 1.56041 -0.10006
							CHANNELS 3 Zrotation Yrotation Xrotation
							End Site
							{
								OFFSET 0.01305 1.62560 -0.05265
							}
						}
					}
				}
				JOINT LeftShoulder
				{
					OFFSET 0 0 0
					CHANNELS 3 Zrotation Yrotation Xrotation
					JOINT LeftArm
					{
						OFFSET 3.54205 0.90436 -0.17364
						CHANNELS 3 Zrotation Yrotation Xrotation
						JOINT LeftForeArm
						{
							OFFSET 4.86513 -0.00000 -0.00000
							CHANNELS 3 Zrotation Yrotation Xrotation
							JOINT LeftHand
							{
								OFFSET 3.35554 -0.00000 0.00000
								CHANNELS 3 Zrotation Yrotation Xrotation
								JOINT LeftFingerBase
								{
									OFFSET 0 0 0
									CHANNELS 3 Zrotation Yrotation Xrotation
									JOINT LeftHandIndex1
									{
										OFFSET 0.66117 -0.00000 0.00000
										CHANNELS 3 Zrotation Yrotation Xrotation
										End Site
										{
											OFFSET 0.53306 -0.00000 0.00000
										}
									}
								}
								JOINT LThumb
								{
									OFFSET 0 0 0
									CHANNELS 3 Zrotation Yrotation Xrotation
									End Site
									{
										OFFSET 0.54120 -0.00000 0.54120
									}
								}
							}
						}
					}
				}
				JOINT RightShoulder
				{
					OFFSET 0 0 0
					CHANNELS 3 Zrotation Yrotation Xrotation
					JOINT RightArm
					{
						OFFSET -3.49802 0.75994 -0.32616
						CHANNELS 3 Zrotation Yrotation Xrotation
						JOINT RightForeArm
						{
							OFFSET -5.02649 -0.00000 0.00000
							CHANNELS 3 Zrotation Yrotation Xrotation
							JOINT RightHand
							{
								OFFSET -3.36431 -0.00000 0.00000
								CHANNELS 3 Zrotation Yrotation Xrotation
								JOINT RightFingerBase
								{
									OFFSET 0 0 0
									CHANNELS 3 Zrotation Yrotation Xrotation
									JOINT RightHandIndex1
									{
										OFFSET -0.73041 -0.00000 0.00000
										CHANNELS 3 Zrotation Yrotation Xrotation
										End Site
										{
											OFFSET -0.58887 -0.00000 0.00000
										}
									}
								}
								JOINT RThumb
								{
									OFFSET 0 0 0
									CHANNELS 3 Zrotation Yrotation Xrotation
									End Site
									{
										OFFSET -0.59786 -0.00000 0.59786
									}
								}
							}
						}
					}
				}
			}
		}
	}
}
MOTION
Frames: 11
Frame Time: 0.033333
8.6551 18.0976 -2.1789 2.4469 0.1667 2.2322 0.0000 0.0000 0.0000 -29.2219 2.1050 16.6660 2.0762 9.0230 25.8674 0.4068 8.9992 12.1404 1.1437 -6.7909 -19.0975 0.0000 0.0000 0.0000 15.5702 22.6051 -33.9189 -7.8561 -16.0124 52.0429 -1.1101 -4.7994 -22.1764 -1.1563 6.8270 -19.2039 -2.5645 -4.1220 5.4985 0.4186 -5.6359 0.4108 2.2663 -2.7814 -2.3591 -0.6727 3.3387 -15.4451 -1.9810 4.5272 -3.5621 -0.2487 2.1922 1.5073 0.0000 -0.0000 0.0000 -75.2712 -2.4495 53.2926 134.8986 -50.8181 -97.6827 -0.0000 0.0000 -29.0872 33.2856 0.9435 0.6193 -7.1250 0.0000 -0.0000 5.3507 31.0825 -1.8271 0.0000 -0.0000 0.0000 78.3661 -47.8159 41.6669 -67.7471 58.0436 -40.8550 0.0000 -0.0000 -11.3896 -50.9835 35.7425 -35.7891 7.1250 -0.0000 -0.0000 -8.9810 18.3371 -11.4639
8.6736 18.2146 -0.5045 4.0702 0.5331 2.1366 0.0000 0.0000 0.0000 -29.6755 3.9684 14.6968 3.6256 11.6448 34.4868 -0.2051 12.5221 5.7106 0.5628 -4.8048 -13.3527 0.0000 0.0000 0.0000 14.4272 21.0877 -29.6410 -4.2950 -12.5430 37.6809 -1.3511 -2.0463 -22.7821 -1.4857 7.7008 -21.8088 -2.7675 -4.2145 4.9142 -0.2897 -5.7755 0.2406 1.6232 -2.8521 -2.2543 -1.9303 3.4995 -14.7952 -1.1825 4.9148 -4.0267 0.2162 2.4300 1.1864 0.0000 0.0000 0.0000 -75.1530 2.0207 56.1520 134.0136 -51.2426 -96.9946 -0.0000 0.0000 -29.4234 32.9096 -0.0678 -0.0439 -7.1250 0.0000 -0.0000 4.9934 29.8805 -1.8482 0.0000 0.0000 0.0000 81.7402 -47.7253 38.8286 -72.7219 58.8414 -45.0949 0.0000 -0.0000 -12.5554 -49.9812 34.5615 -34.0438 7.1250 -0.0000 -0.0000 -8.8933 16.5071 -11.1657
8.6531 18.1225 1.1453 4.8334 1.0748 0.9726 0.0000 0.0000 0.0000 -28.2225 5.8919 11.6901 6.3440 14.7536 46.3472 -0.5038 13.3668 0.2481 0.4038 -4.0794 -11.3002 0.0000 0.0000 0.0000 15.0039 19.3768 -25.0670 -2.9348 -10.5887 30.9050 -1.7159 -2.8156 -25.8930 -1.3827 7.4405 -21.0271 -3.1875 -3.9688 5.2439 -0.3681 -5.4717 0.8105 1.7547 -2.7106 -1.8332 -1.6342 3.3049 -15.7721 -2.6818 4.6543 -3.8725 -0.2984 2.2462 1.4546 0.0000 -0.0000 0.0000 -76.4772 7.0383 58.9030 132.4558 -51.9557 -95.7737 -0.0000 0.0000 -29.3050 33.1784 0.4835 0.3161 -7.1250 0.0000 -0.0000 5.2384 30.5346 -1.8574 0.0000 -0.0000 0.0000 84.3535 -45.1526 36.9635 -76.5102 59.3011 -48.3449 0.0000 -0.0000 -12.3362 -49.7776 34.8601 -34.0521 7.1250 -0.0000 -0.0000 -8.6881 16.7253 -10.9249
8.6468 17.8026 2.7266 3.9480 1.0194 -0.4611 0.0000 0.0000 0.0000 -25.3380 6.5693 6.4991 10.7660 17.8186 62.0192 -0.6252 13.8820 -4.0599 0.4359 -4.2368 -11.7439 0.0000 0.0000 0.0000 17.6863 17.7800 -20.2265 -2.6833 -10.1638 29.5088 -1.7252 -4.2817 -26.6573 -1.3774 7.4268 -20.9861 -2.3092 -3.4636 6.4149 0.1407 -4.7558 1.5771 1.7983 -2.3656 -1.7601 -2.0853 3.0101 -16.4217 -2.8562 4.3585 -4.0602 -0.2863 2.0966 1.4962 -0.0000 -0.0000 0.0000 -77.9665 12.1455 60.1099 128.9203 -53.4218 -92.9612 -0.0000 0.0000 -30.9063 32.9388 -0.9943 -0.6441 -7.1250 0.0000 -0.0000 4.9580 28.7807 -1.9652 -0.0000 -0.0000 0.0000 85.4913 -39.6619 36.7743 -80.0234 59.6205 -51.3710 0.0000 -0.0000 -10.8278 -50.6291 34.8530 -34.8550 7.1250 -0.0000 -0.0000 -9.1189 17.1765 -11.5252
8.6544 17.3224 4.2539 2.5346 0.1963 -0.9450 0.0000 0.0000 0.0000 -21.8643 6.1961 -1.3422 16.3491 19.6774 79.2700 -0.5634 13.1777 -5.6225 0.1539 -2.5281 -6.9676 0.0000 0.0000 0.0000 20.6474 16.3885 -18.2564 -3.4459 -11.3841 33.5864 -1.1054 -1.6820 -20.5362 -0.7915 5.6792 -15.8563 -0.7060 -2.5384 7.6082 0.7472 -3.4089 1.4958 1.4955 -1.6897 -2.6259 -2.5594 2.4154 -15.5608 -2.7484 3.6227 -4.3750 -0.2315 1.7551 1.2288 0.0000 -0.0000 0.0000 -77.7796 17.9644 60.7402 123.0904 -55.4286 -88.2173 -0.0000 0.0000 -31.0681 32.7522 0.1935 0.1245 -7.1250 0.0000 -0.0000 4.8849 30.1912 -1.7715 0.0000 -0.0000 0.0000 84.3863 -31.7271 38.5200 -83.2331 59.8263 -54.1431 0.0000 -0.0000 -9.9597 -50.2199 34.9708 -34.5440 7.1250 -0.0000 -0.0000 -8.8722 17.0831 -11.1976
8.6814 16.8197 5.6723 -0.8893 -2.7880 -2.8541 0.0000 0.0000 0.0000 -16.0594 6.5442 -9.4372 22.0973 19.8942 96.1425 -0.2443 9.0735 -5.9912 0.1828 -2.7535 -7.5931 0.0000 0.0000 0.0000 26.9509 19.0163 -14.9300 -5.6742 -14.1050 43.6595 -1.3696 -1.3098 -22.6250 -0.0951 1.9888 -5.4748 2.5753 -1.5615 11.0549 1.6670 -1.7144 2.6575 0.5204 -0.8665 -3.4443 -1.2610 2.9699 -14.0879 -3.4354 3.9920 -8.0609 -0.6995 1.9827 -0.1658 -0.0000 -0.0000 0.0000 -76.9658 22.0630 58.7352 112.6265 -57.9743 -79.4618 -0.0000 0.0000 -31.4476 33.6480 -1.6194 -1.0776 -7.1250 0.0000 -0.0000 5.4623 28.0205 -2.2653 -0.0000 -0.0000 0.0000 81.6682 -17.4366 43.1072 -86.1810 59.9448 -56.6933 0.0000 -0.0000 -9.2281 -50.4233 35.5248 -35.1056 7.1250 -0.0000 -0.0000 -8.7795 17.7953 -11.1491
8.7463 16.5984 7.0786 -5.1324 -7.9338 -1.6215 0.0000 0.0000 0.0000 -10.2776 6.7121 -20.3056 25.9447 19.1307 107.6267 -0.0475 7.5742 -9.6875 0.1640 -2.6093 -7.1929 0.0000 0.0000 0.0000 33.0577 19.4623 -10.8444 -6.2765 -14.6911 46.0816 -1.9167 1.9993 -25.6423 -0.0457 1.3802 -3.7956 7.0349 -0.2048 11.8412 2.8398 0.6899 2.8088 -1.0903 0.2873 -3.6406 -1.2845 3.4500 -12.8389 -3.7273 4.5270 -10.2157 -0.8164 2.2975 -1.0282 -0.0000 -0.0000 0.0000 -77.7366 27.7840 53.8116 101.1901 -59.5215 -69.6753 -0.0000 0.0000 -28.9510 36.9830 0.4465 0.3363 -7.1250 0.0000 -0.0000 8.2379 30.4817 -2.9477 -0.0000 -0.0000 0.0000 78.1295 -1.4169 47.5491 -89.7730 59.9998 -59.8034 0.0000 -0.0000 -6.7108 -52.0835 35.6627 -36.8137 7.1250 -0.0000 -0.0000 -9.5560 18.8680 -12.2689
8.7726 16.6405 8.5760 -2.6923 -9.2631 -1.9008 0.0000 0.0000 0.0000 -14.0200 2.2183 -28.9972 27.0643 18.7588 111.0743 0.0736 9.2380 -14.3910 0.0452 -1.3717 -3.7721 0.0000 0.0000 0.0000 31.5347 17.8978 -4.1526 -5.9842 -14.4130 44.9182 -2.2914 2.8532 -27.9155 -0.0213 0.9430 -2.5920 4.5947 0.5789 11.8705 1.9746 1.3924 2.9002 -0.7322 0.6553 -3.5536 -0.2798 3.3200 -12.6536 -3.6672 4.2483 -9.9459 -0.9693 2.1240 -0.9530 -0.0000 0.0000 0.0000 -77.8568 33.7441 49.5205 92.9684 -59.9667 -62.5704 -0.0000 0.0000 -30.0216 37.1373 2.7089 2.0499 -7.1250 0.0000 -0.0000 8.5817 33.2875 -2.4875 -0.0000 0.0000 0.0000 76.4712 10.8646 49.5615 -97.6896 59.7754 -66.6544 0.0000 -0.0000 -2.8439 -52.0560 36.8341 -37.5557 7.1250 -0.0000 -0.0000 -9.1088 20.1054 -11.8008
8.8360 16.9274 10.1564 -1.5425 -8.6604 -1.2138 0.0000 0.0000 0.0000 -16.2993 -5.6936 -35.1187 25.7137 19.1986 106.9231 0.1867 9.0355 -15.8089 0.0741 -1.7564 -4.8329 0.0000 0.0000 0.0000 30.5256 15.2173 3.2360 -4.6706 -13.0029 39.3794 -1.8806 1.7702 -25.4500 -0.2609 3.2864 -9.0771 4.7866 1.0579 10.8784 1.0684 1.9909 2.0161 -1.8567 0.9311 -3.8647 -0.3746 2.4905 -11.2837 -3.0259 3.1910 -9.6052 -0.7992 1.6100 -1.0882 0.0000 0.0000 0.0000 -75.4216 39.2477 49.5299 90.9653 -59.9965 -60.8360 -0.0000 0.0000 -29.7804 36.5371 1.8251 1.3519 -7.1250 0.0000 -0.0000 8.0152 32.1825 -2.5362 0.0000 0.0000 0.0000 76.4134 16.2586 49.0466 -109.7112 58.4798 -76.9832 0.0000 -0.0000 -3.9154 -53.8869 36.8977 -39.4524 7.1250 -0.0000 -0.0000 -9.9785 21.2406 -13.0663
8.8804 17.3264 11.8361 -1.6698 -8.2694 -0.7163 0.0000 0.0000 0.0000 -16.2557 -11.7861 -37.2271 22.0950 19.8944 96.1358 0.4816 5.9011 -16.5928 0.2894 -3.4596 -9.5611 0.0000 0.0000 0.0000 30.4337 12.0899 10.6659 -3.3507 -11.2422 33.1012 -0.6392 -0.6233 -15.3428 -1.0159 6.4126 -17.9862 5.9989 1.8177 9.4213 0.4919 3.0412 1.2901 -3.2278 1.4288 -3.6498 -1.1292 1.1685 -11.4635 -1.9497 1.6057 -7.8993 -0.3678 0.8238 -0.5646 -0.0000 -0.0000 0.0000 -73.2046 43.2416 49.9156 90.1038 -60.0000 -60.0899 -0.0000 0.0000 -28.3834 34.2199 1.5310 1.0410 -7.1250 0.0000 -0.0000 6.1331 31.7933 -1.9915 -0.0000 -0.0000 0.0000 76.0004 17.7739 48.5929 -120.6614 56.1311 -86.2086 0.0000 -0.0000 -8.5985 -53.2425 36.8349 -38.7513 7.1250 -0.0000 -0.0000 -9.6885 20.7919 -12.6352
8.9069 17.8563 13.5499 -0.8092 -8.1510 -0.9145 0.0000 0.0000 0.0000 -17.4366 -13.9069 -35.8698 16.4527 19.6956 79.5775 0.6365 7.3898 -19.5350 0.3674 -3.8933 -10.7766 0.0000 0.0000 0.0000 27.9229 7.8421 15.4274 -2.4405 -9.7289 28.1034 0.0707 -5.3771 0.8033 -1.3348 7.3157 -20.6541 5.6364 2.4939 8.4459 -0.2638 3.8225 1.0100 -3.8509 1.8259 -3.2934 -1.8235 0.4616 -12.5624 -0.9890 0.8324 -6.0159 0.0270 0.4386 0.1892 0.0000 -0.0000 0.0000 -73.3397 45.3937 47.9178 89.5782 -59.9993 -59.6347 -0.0000 0.0000 -30.0339 34.6839 -0.7479 -0.5175 -7.1250 0.0000 -0.0000 6.3315 29.0451 -2.4750 0.0000 -0.0000 0.0000 76.0096 17.0664 48.9930 -127.1669 54.0761 -91.5471 0.0000 -0.0000 -7.2492 -54.0646 37.9046 -40.2842 7.1250 -0.0000 -0.0000 -9.6688 22.4000 -12.7583
